<svg width="80" height="80" viewBox="0 0 80 80" fill="none" xmlns="http://www.w3.org/2000/svg">
  <rect width="80" height="80" fill="#E5E7EB"/>
  <path d="M24 28C24 26.8954 24.8954 26 26 26H54C55.1046 26 56 26.8954 56 28V34C56 35.1046 55.1046 36 54 36H26C24.8954 36 24 35.1046 24 34V28Z" fill="#9CA3AF"/>
  <path d="M24 42C24 40.8954 24.8954 40 26 40H54C55.1046 40 56 40.8954 56 42V44C56 45.1046 55.1046 46 54 46H26C24.8954 46 24 45.1046 24 44V42Z" fill="#D1D5DB"/>
  <path d="M24 50C24 48.8954 24.8954 48 26 48H46C47.1046 48 48 48.8954 48 50V52C48 53.1046 47.1046 54 46 54H26C24.8954 54 24 53.1046 24 52V50Z" fill="#D1D5DB"/>
  <circle cx="40" cy="40" r="8" fill="#6B7280"/>
  <path d="M40 36L43 42H37L40 36Z" fill="white"/>
</svg>
